<svg version="1.2" xmlns="http://www.w3.org/2000/svg" viewBox="0 0 124 24" width="124" height="24">
	<title>facebook-logos-svg</title>
	<defs>
		<clipPath clipPathUnits="userSpaceOnUse" id="cp1">
			<path d="m0 0h123.75v24h-123.75z"/>
		</clipPath>
	</defs>
	<style>
		.s0 { fill: #888888 } 
	</style>
	<g id="Clip-Path: Clip-Path" clip-path="url(#cp1)">
		<g id="Clip-Path">
			<g id="Layer">
				<path id="Layer" fill-rule="evenodd" class="s0" d="m73.4 12.5c0.7 2.5 0.7 5-0.2 7.5-1.3 3.8-5.1 4.6-7.9 3.6-0.8-0.3-1.4-0.8-2.1-1.3v1.4h-4.9v-23.1l4.9-0.6v10c1.4-1.7 3-2.2 4.8-2q4.4 0.5 5.4 4.5zm-4.6 1.4c-0.3-1.5-1.4-2.2-2.9-2.1-1 0-1.8 0.4-2.3 1.3-0.5 1-0.4 3.3-0.3 4.4 0.1 0.7 0.4 1.8 1.6 2.5q0.4 0.1 1 0.2c1.4 0.1 2.7-0.7 2.9-2.2 0.2-1.4 0.1-2.7 0-4.1z"/>
				<path id="Layer" fill-rule="evenodd" class="s0" d="m90.4 13.4q0.6 2.6 0 5.2c-0.7 3.1-3.2 5.2-6.4 5.3q-0.1 0-0.1 0c-0.7 0.1-1.5 0.1-2.1 0q-0.3 0-0.5-0.1-0.1 0-0.2 0-0.1 0-0.3 0-0.1 0-0.2-0.1c-3.1-0.7-5.2-3-5.4-6.3 0-1.4 0-2.9 0.3-4.3 0.6-2.6 2.3-4.2 4.8-4.8q2.6-0.7 5.2 0 4 1.1 4.9 5.1zm-4.8 0.4c-0.3-1.2-1.3-2-2.6-2-1.6-0.1-2.7 0.9-2.9 2.6q-0.1 1.7 0.1 3.3c0.1 1.5 1.1 2.4 2.6 2.5 1.5 0 2.5-0.7 2.8-2.2q0.1-0.1 0.1-0.3c0-0.3 0.3-2.6-0.1-3.9z"/>
				<path id="Layer" class="s0" d="m11.6 8.2h-3.6v-2.3c0.3-2.2 3.9-1.8 3.9-1.8v-0.2-3.6c-0.1 0-7.2-1.7-8.6 3.7-0.3 0.7-0.3 3.8-0.3 4.2h-3v4.1h3.2v11.2h4.7v-11.2h3.7l0.4-4.1z"/>
				<path id="Layer" fill-rule="evenodd" class="s0" d="m22.8 10.2v-2h4.6v15.5h-4.6v-2q-0.1 0.2-0.2 0.2c-0.7 1-1.5 1.7-2.6 1.9-3.6 0.7-7-0.8-7.8-5.3-0.4-2.1-0.4-4.2 0.3-6.2 1-3.4 4.2-5.1 7.6-4.1 0.9 0.2 1.3 0.5 2.4 1.6q0 0 0.1 0.2 0.1 0.1 0.2 0.2zm-0.4 3.8c-0.2-1.4-1.2-2.2-2.6-2.2-1.4-0.1-2.3 0.6-2.7 1.9 0 0.1-0.4 2.4-0.1 4.3 0.3 1.4 1.3 2.1 2.7 2.2 1.4 0 2.5-0.8 2.7-2.3q0.1-2 0-3.9z"/>
				<path id="Layer" class="s0" d="m41.4 22.6q-0.3-1.2-0.7-2.3l-0.2-0.8c0 0-5.7 2.7-6.6-2.5-0.1-0.9-0.1-1.8 0-2.6 0.2-1.6 1.2-2.5 2.8-2.6q0.8-0.1 1.6 0c0.7 0.2 1.4 0.4 2.2 0.6q0.4-1.3 0.8-2.5 0.1-0.2 0.1-0.3l0.1-0.5q0-0.1-0.2-0.2c-0.1-0.1-0.3-0.2-0.7-0.4q-0.2 0-0.4-0.1-0.2-0.1-0.2-0.1c-1.5-0.4-3.1-0.4-4.7-0.3-3.3 0.4-5.6 2.3-6.2 5.6q-0.5 2.5 0.1 5.1 0.8 3.8 4.6 4.9c1.7 0.5 3.4 0.5 5 0.2 0.7-0.1 1.8-0.4 2.5-0.7l0.3-0.1z"/>
				<path id="Layer" fill-rule="evenodd" class="s0" d="m56.6 17.7c-0.1 0-0.7 0-0.8 0q-4 0-8.1 0h-0.8c0 1.7 1 2.4 2.4 2.7q1.3 0.1 2.5 0c1-0.2 2-0.4 2.6-0.6q0.1 0 0.1 0 0.3-0.1 0.6-0.2 0.2-0.1 0.2-0.1l0.1 0.1q0.3 1.3 0.6 2.5l0.2 0.7c-4.3 2.1-9.2 0.9-10.2 0.6q0 0-0.1 0c-2.2-0.8-3.4-2.5-3.8-5.1-0.2-1.7-0.2-3.5 0.1-5.2 0.5-2.9 2.8-4.7 5.8-5 1.1-0.1 2.3-0.2 3.4 0 2.8 0.5 4.6 2.3 5 5.2 0.2 1.1 0.2 2.1 0.2 3.2zm-5.5-6c-1.1-0.6-2.2-0.6-3.2 0.1-0.9 0.6-1 1.5-1.1 2.6h5.4c0-1.1-0.1-2.1-1.1-2.7z"/>
				<path id="Layer" class="s0" d="m123.8 8.4h-5.3l-4.5 7v-15.4l-4.9 0.6v23.1h4.9v-7.1l4.5 7.1h5.3l-5-7.7z"/>
				<path id="Layer" fill-rule="evenodd" class="s0" d="m107.2 13.4q0.6 2.6 0 5.2c-0.7 3.1-3.2 5.2-6.4 5.3q-0.1 0-0.1 0c-0.7 0.1-1.5 0.1-2.1 0q-0.3 0-0.5-0.1-0.1 0-0.2 0-0.1 0-0.3 0-0.1 0-0.1 0 0-0.1-0.1-0.1c-3.1-0.7-5.2-3-5.4-6.3 0-1.4 0-2.9 0.3-4.3 0.6-2.6 2.3-4.2 4.8-4.8q2.6-0.7 5.2 0 4 1.1 4.9 5.1zm-4.8 0.4c-0.3-1.3-1.3-2-2.6-2-1.6-0.1-2.7 0.9-2.9 2.6q-0.1 1.7 0.1 3.3c0.1 1.5 1.1 2.4 2.6 2.5 1.5 0 2.5-0.7 2.8-2.2q0.1-0.1 0.1-0.3c0-0.3 0.3-2.6-0.1-3.9z"/>
			</g>
		</g>
	</g>
</svg>