<svg version="1.2" xmlns="http://www.w3.org/2000/svg" viewBox="0 0 357 357" width="30" height="30">
	<title>globe-svg-svg</title>
	<style>
		.s0 { fill: #000000 } 
	</style>
	<g id="SVGRepo_bgCarrier">
	</g>
	<g id="SVGRepo_tracerCarrier">
	</g>
	<g id="SVGRepo_iconCarrier">
		<g id="Layer">
			<g id="Layer">
				<g id="Layer">
					<path id="Layer" class="s0" d="m260.1 79.4l0.3 2.6-4 0.9-0.5 5.6h4.8l6.3-0.6 3.3-3.9-3.5-1.3-1.9-2.2-2.9-4.6-1.3-6.6-5.4 1.1-1.5 2.3v2.6l2.6 1.8z"/>
					<path id="Layer" class="s0" d="m255.5 81.6l0.3-3.6-3.2-1.3-4.4 1-3.3 5.2v3.4h3.9z"/>
					<path id="Layer" class="s0" d="m164.9 96.6l-1 2.5h-4.7v2.4h1.1c0 0 0.1 0.5 0.2 1.2l2.8-0.2 1.8-1.1 0.5-2.3 2.3-0.2 0.9-1.9-2.1-0.4z"/>
					<path id="Layer" class="s0" d="m152.7 101l-0.1 2.4 3.4-0.3 0.3-2.4-2-1.6z"/>
					<path id="Layer" fill-rule="evenodd" class="s0" d="m356.9 178.5c0 10.6-1 21-2.8 31.1q-0.9 5.4-2.2 10.6c-3.3 13.8-8.2 27-14.5 39.3-29.6 57.8-89.7 97.4-158.9 97.4-98.4 0-178.5-80-178.5-178.4 0-41 13.9-78.8 37.2-108.9 6.2-8 13-15.5 20.4-22.3 31.8-29.3 74.3-47.3 120.9-47.3 46.1 0 88.3 17.6 120 46.5 2.8 2.6 5.5 5.3 8.2 8q1.4 1.4 2.7 2.9c14 15.1 25.4 32.5 33.5 51.7 0.5 1.2 0.9 2.3 1.3 3.4 6.1 15.3 10.2 31.6 11.9 48.6q0.7 7.7 0.8 15.5 0 1 0 1.9zm-21.3-46.2q-2-6.6-4.5-13l-8.5 0.2-4.3-4.7-0.8-7.6-4.4 2.4-2.3 9.3-6.4-6.8-0.2-6.3-6.1-5.3-2.3-2.2h-7.1l2.3 6.3 8.5 4.7 1.5 1.6-1.9 0.9 0.1 5-4.1 1.8-3.6-0.8-2.2-3.2 5.7 0.3 1.6-2.1-12.8-8.6-1-3.7-5.1 4.7-5.3-1-8 10.4-1.6 4.1-5.1 0.4-7.6 0.1-4.6-2.2-1.3-9 1.6-4.3 7.7-1.6 8.5 1.6 1-4.6-3.6-0.9 1.2-7.2 8.5-1.3 5.9-8.4 6.1-1 5.6 0.8h2l-1.1-7.9-6.7 2.7-2.4-5.8-3.9-0.6-0.7-4 3.2-3.5 7.5-2.9 2-3.5c-28.9-25.4-66.8-40.9-108.2-40.9-35.9 0-69.1 11.7-96.2 31.4l8.3-0.1 3.7 2 6.9 1.5 0.5 2.7 11.1 0.5-1.5-3.6-9.8-0.3 2.3-2.1-0.8-2.6h-8.9l9.7-7.2h9.2l4.4 6 7.3 0.4 4.3-4.2 3.3 1.6-6 5.8c0 0-8.3 0.2-7.9 0.2 0.4 0 0.7 5.7 0.7 5.7l10.1-0.3 1.1-2.7 6.9-0.4 0.8-4.1-4.1-0.7 1.4-3.7 3.1-0.9 10.9 0.5-6 5.5 1 4.2 6.2 0.9-0.4-7.6 6-3.1 10.6-1.2 15.4 6.8v5.8l4.9 1.2-2.4 4.7h-7l-2 5.3-15.9-3.8 12.5-6.6-4.8-4-10.7 1.3-1.2 1.2-3.1 3.2-5.1 0.5 0.4 2.5 1.8 0.7-0.1 0.9-4.2 0.6-0.3 2.4-4 0.2-0.7-4.8-7.1 2.2-14.6 8.5 1.6 6 4.1 2.7 8.2 1.1v9.3l3.7-0.6 3.5-7.2 8.7-2.8v-11.1l4.8-3.7 11.7 2.8-0.8 7.3h3.1l8.6-4.2 0.4 9.7 6.2 3.8-0.2 5.7-6 2 0.4 1.9 7.2 3.3-0.1 4-2.1 0.1q-0.1-0.1-0.1-0.1l-9.1-2.8-0.3-2.9h-0.1l2.7-1.8v-2.7l-2.8-0.7-0.8 2.5-5 0.7-0.5-0.1v0.2l-1.7 0.3-1.4-2.9-1.7-0.7h-3.6l-1.6 1.3v3l3.1 1 3 0.4-0.7 0.3-2.7 3.1-1.3-1.6-2.6-0.7-7.3 6.9 1 0.7-10.7 6-10.1 10.5-0.7 4.6-10.1 6.7-5 5 0.5 10.1-6.9-3.3 0.1-5.9h-19.4l-10 5.1-4.3 8-1.7 6.4 2.8 6.1 7.9 1 12.5-8.4 1.1 4.2-3.8 7.2 9.5 1.6 1 14.7 13 2.3 8.3-9.6 10.1 2 3.5 4.9 9.7-0.5 0.3-2.9 5.3 2.6 6 9.4 10.3 0.1 3.8 6.7 0.6 8.2 11.4 4.3 14.4 0.2 4.2 6.9 6.4 2-1.2 5.8-7 8.8-2.1 19.7-6.3 5-9.4-0.2-3.2 5.4 2.4 10.2-10.2 13.1-3.3 6-9.7 4.7-6.4 0.9-0.3 2.7 4.5 1.3-0.5 3-4.1 3.8 2.5 3.1 4.8 0.1-0.3 3.8-1.2 3.7-0.4 3 7.1 6-0.9 3.1-9.8-0.2-9.7-8.4-7.5-13.3 1-12.8-5.7-7.7 2.3-12.9-3.4-1v-28c0 0-9.5-7.2-10-7.2-0.6 0-5.1-1.2-5.1-1.2l-0.9-5.3-12.4-15.5 1.2-5.6 0.4-9.1 8.6-6-1.2-10.2-12.5-1-9.8-11.1-7-1.9-4.5-0.9 0.6-4-5.8-0.8v2.3l-14.2-3.6-5.8-8.8 2.3-4.2-9-13.2-1.6-9.7h-3.6l1.2 9.4 6.2 9.7-0.6 3.8-5.4-0.8-6.5-11.2v-12.9l-6.8-3.3v-9.3c1.8-4.2 3.8-8.2 5.9-12.2l6.8-8.3-0.3-3q-3.5 5.5-6.5 11.3l-5.9 7.1v5.1c-8.4 19.7-13.1 41.3-13.1 64.1 0 90.3 73.5 163.8 163.8 163.8 51.2 0 97-23.7 127.1-60.6h-5.4v-10.9l-6.3-8.4v-13.1l-4.8-4.7-0.4-5.5 6.1-11.5-11.5-20.3 1.4-13.8-10.4-1.1-3.8-3.8h-6.9l-3.6 3.3h-12.2l-0.4 1.1h-6.8l-15.7-17.8 0.2-13.9 2.5-1 1-5.3h-3.7l-1.5-5.6 18.1-13v-9.3l8.9-4.9 3.6 0.3h7.3l5.7-3 18.3-1.4v9.4l14.5 3.6 2.9 2.1h2.6v-5.2l8.4-0.8 8 6h13zm-45.1-54.6l0.7 2.3 11.3 0.1 3.2-4.8q-3.9-4.7-8.1-9.2v8zm-208.3-20.1h8.1l1.7-2.3v-2.5h-5.9l-0.3 1.2h-3.6zm0 6.3l1.5 1.9 8.1-0.6c0 0 0.3-3.5 0-3.5-0.3 0-3.9 0.6-3.9 0.6zm241.1 48.6l3.2-0.5 1.7 0.1q-1.8-4.1-3.9-8l-1 1.1zm-223.3-26.1l4.2-1.3 1.3-5.2-3.9-0.9-4.2 2zm18.6 6.9v-2h-6.4l-4.7 2-0.9 2.3 3.7 1h9.8v-3.3zm0.5 4.7c0 0.5 0 5.4 0 5.4l3-0.6 2.5-1.6v-3.2zm6.1-2.2l-3.4-3.1v3.9zm-5.6 9.2l-0.5 1.3-2.5 0.2-0.8 3.5h5.2l2.4-2.3v-3.2zm-13-2.9l-0.6 4 2.9 1.6 6.9-9.7h-5.4zm19.7-0.5h-0.4v2.9l1.4 2.1h5.2v-3.2zm3.4-0.8l2-1.7-2.5-1.6-1.4 1.6zm208.7 42.9q-0.3-1.4-0.7-2.8l-0.5 0.6z"/>
					<path id="Layer" class="s0" d="m27.7 109.3v5.1c1.8-4.2 3.8-8.3 5.9-12.2z"/>
				</g>
			</g>
		</g>
	</g>
</svg>