<svg version="1.2" xmlns="http://www.w3.org/2000/svg" viewBox="0 0 92 30" width="92" height="30">
	<title>google-logo-svg</title>
	<defs>
		<clipPath clipPathUnits="userSpaceOnUse" id="cp1">
			<path d="m0 0h92v30h-92z"/>
		</clipPath>
	</defs>
	<style>
		.s0 { fill: #888888 } 
	</style>
	<g id="Clip-Path: Clip-Path" clip-path="url(#cp1)">
		<g id="Clip-Path">
			<g id="Layer">
				<path id="Layer" class="s0" d="m22.6 10.6h-10.7v3.2h7.6c-0.4 4.4-4.1 6.3-7.6 6.3-4.5 0-8.4-3.5-8.4-8.4 0-4.8 3.7-8.5 8.4-8.5 3.6 0 5.7 2.3 5.7 2.3l2.3-2.3c0 0-2.9-3.2-8.1-3.2-6.7 0-11.8 5.6-11.8 11.6 0 5.9 4.8 11.7 12 11.7 6.2 0 10.8-4.3 10.8-10.6 0-1.3-0.2-2.1-0.2-2.1z"/>
				<path id="Layer" fill-rule="evenodd" class="s0" d="m39 15.8c0 4.3-3.4 7.5-7.5 7.5-4.6 0-7.6-3.5-7.6-7.6 0-4 3.1-7.4 7.5-7.4 3.6 0 7.6 2.6 7.6 7.5zm-11.8 0c0 2.6 1.8 4.5 4.2 4.5 2.2 0 4.3-1.8 4.3-4.5 0-2.8-2.1-4.6-4.2-4.6-2.5 0-4.3 2-4.3 4.6z"/>
				<path id="Layer" fill-rule="evenodd" class="s0" d="m55.4 15.8c0 4.3-3.4 7.5-7.5 7.5-4.5 0-7.6-3.5-7.6-7.6 0-4 3.2-7.4 7.6-7.4 3.6 0 7.5 2.6 7.5 7.5zm-11.8 0c0 2.6 1.9 4.5 4.3 4.5 2.2 0 4.2-1.8 4.2-4.5 0-2.8-2-4.6-4.2-4.6-2.4 0-4.3 2-4.3 4.6z"/>
				<path id="Layer" fill-rule="evenodd" class="s0" d="m64 8.3c1.7 0 3.1 0.7 4 1.7v-1.2h3.2v13.4c0 5.3-3.1 7.8-7.1 7.8-3.7 0-5.7-2.2-6.8-4.4l2.9-1.2c0.4 1 1.6 2.7 3.9 2.7 2.4 0 3.9-1.6 3.9-4.2v-1.4c-0.8 0.9-1.9 1.8-4.1 1.8-3.4 0-7.1-3-7.1-7.5 0-4 3.1-7.5 7.2-7.5zm-3.9 7.5c0 2.8 2 4.5 4.1 4.5 2.1 0 4.1-1.6 4.1-4.5 0-2.9-2-4.6-4-4.6-2.1 0-4.2 1.8-4.2 4.6z"/>
				<path id="Layer" fill-rule="evenodd" class="s0" d="m85.2 8.3c3 0 5.3 2 6.3 4.4l0.5 1.2-10.1 4.2c0.6 1.1 1.6 2.2 3.7 2.2 1.9 0 3-1 3.7-2l2.6 1.7c-1.2 1.5-3.1 3.3-6.3 3.3-3.8 0-7.4-2.8-7.4-7.5 0-4.5 3.2-7.5 7-7.5zm-3.8 7.3l6.7-2.8c-0.4-0.9-1.4-1.6-2.7-1.6-2.2 0-4.3 2.2-4 4.4z"/>
				<path id="Layer" class="s0" d="m73.4 22.8h3.3v-22h-3.3z"/>
			</g>
		</g>
	</g>
</svg>