<svg version="1.2" xmlns="http://www.w3.org/2000/svg" viewBox="0 0 120 34" width="120" height="34">
	<title>New Project</title>
	<style>
		.s0 { fill: #888888 } 
	</style>
	<path id="Layer" class="s0" d="m19.6 7.6l2.9-1.4c0.1-0.1 0.2 0 0.3 0q0 0.1 0 0.1v3.4h3.2v3.4h-3.2v6.1c-0.1 1.1 0.6 2 1.7 2.1q0.2 0.1 0.4 0 0.5 0.1 0.9-0.1v3.2q-0.2 0.1-0.5 0.2-0.6 0.1-1.2 0.1-1.1 0-2.1-0.3c-0.6-0.3-1.1-0.7-1.5-1.1-0.5-0.5-0.8-1.1-1.1-1.7q-0.3-1.1-0.3-2.2v-6.3h-2.3v-3.1h2.7v-2.4z"/>
	<path id="Layer" fill-rule="evenodd" class="s0" d="m34.4 24.7q-1.4 0-2.6-0.5c-0.8-0.4-1.6-1-2.2-1.6-0.7-0.7-1.2-1.5-1.6-2.4-0.7-2-0.7-4.2 0-6.1 0.4-0.9 0.9-1.7 1.6-2.4q0.9-1.1 2.2-1.6c0.8-0.4 1.7-0.6 2.6-0.6 0.6 0 1.2 0.1 1.8 0.3q0.7 0.2 1.3 0.5 0.6 0.4 1.2 0.8v-1.4h3.4v14.9h-3.4v-1.5q-0.6 0.5-1.2 0.8-0.6 0.4-1.3 0.6-0.9 0.2-1.8 0.2zm4.2-7.6q0-1.8-1-2.9c-1.5-1.5-3.9-1.5-5.3 0q-1.1 1.1-1.1 2.9 0 1.9 1.1 2.9c1.4 1.5 3.8 1.5 5.3 0q1-1 1-2.9z"/>
	<path id="Layer" class="s0" d="m52.1 9.5q1 0 1.9 0.3 0.7 0.3 1.4 0.7 0.5 0.4 0.9 1 0.5-0.6 1.2-1 0.6-0.4 1.4-0.7c0.5-0.2 1.1-0.3 1.7-0.3q2.5 0 3.9 1.6 1.5 1.5 1.5 4.5v9h-3.7v-8.6q0-1.4-0.8-2.1c-0.4-0.5-1-0.8-1.7-0.8-0.6 0-1.2 0.3-1.7 0.8-0.5 0.5-0.7 1.2-0.7 2.1v8.6h-3.7v-8.6q0-1.4-0.7-2.1c-0.5-0.5-1.1-0.8-1.7-0.8-0.7 0-1.3 0.3-1.7 0.8-0.5 0.5-0.7 1.2-0.7 2.1v8.6h-3.8v-14.9h3.4v1.4q0.5-0.4 1-0.8c0.4-0.2 0.8-0.4 1.1-0.5q0.7-0.3 1.5-0.3z"/>
	<path id="Layer" fill-rule="evenodd" class="s0" d="m76.5 9.5q1.4 0 2.6 0.6 1.3 0.5 2.2 1.6c0.7 0.6 1.2 1.5 1.6 2.4 0.7 1.9 0.7 4.1 0 6.1-0.4 0.9-0.9 1.7-1.6 2.4-0.6 0.6-1.3 1.2-2.2 1.6-0.8 0.3-1.7 0.5-2.6 0.5q-0.9 0-1.7-0.2-0.6-0.2-1.1-0.5c-0.4-0.2-0.8-0.4-1.1-0.7v4.7l-3.4 1.8c-0.1 0.1-0.3 0-0.3-0.1q0 0 0 0v-20h3.4v1.4q0.5-0.4 1.1-0.8 0.7-0.3 1.3-0.5 0.9-0.3 1.8-0.3zm-4.2 7.6q0 1.9 1.1 2.9c1.4 1.5 3.8 1.5 5.3 0q1-1.1 1-2.9 0-1.8-1-3c-1.5-1.4-3.9-1.4-5.3 0q-1.1 1.2-1.1 3z"/>
	<path id="Layer" fill-rule="evenodd" class="s0" d="m99 20q-0.4 0.9-0.9 1.7-0.6 0.9-1.5 1.5-0.8 0.7-1.9 1.1-1.1 0.4-2.3 0.4-1.5 0-2.9-0.6-1.3-0.6-2.4-1.6-1-1.1-1.6-2.4c-0.4-1-0.6-2-0.6-3q0-1.6 0.6-3c0.4-0.9 0.9-1.7 1.6-2.4 0.7-0.7 1.5-1.2 2.4-1.6 0.9-0.4 1.9-0.6 2.9-0.6 0.9 0 1.9 0.2 2.7 0.5 0.9 0.4 1.6 0.9 2.3 1.6 0.6 0.7 1.1 1.5 1.5 2.4 0.4 1 0.6 2 0.6 3.1q0 0.3-0.1 0.5 0 0.2 0 0.5-0.1 0.2-0.1 0.5h-10.4c0.2 0.7 0.6 1.3 1.1 1.8q0.9 0.7 2.3 0.8 0.7 0 1.3-0.2 0.4-0.2 0.8-0.4 0.4-0.3 0.7-0.6zm-6.6-6.9c-0.9 0-1.7 0.2-2.4 0.8q-0.9 0.9-1.2 2.1h7.1c-0.1-0.8-0.6-1.5-1.2-2.1-0.6-0.6-1.4-0.9-2.3-0.8z"/>
	<path id="Layer" fill-rule="evenodd" class="s0" d="m107.9 24.7q-1.4 0-2.7-0.5c-0.8-0.4-1.6-1-2.2-1.6-0.6-0.7-1.2-1.5-1.5-2.4-0.7-2-0.7-4.2 0-6.1 0.3-0.9 0.9-1.7 1.5-2.4q1-1.1 2.2-1.6c0.9-0.4 1.8-0.6 2.7-0.6q0.8 0 1.6 0.3 0.6 0.2 1.3 0.5 0.5 0.3 1 0.7v-5.2l3.4-1.8c0.1 0 0.3 0 0.3 0.1q0 0 0 0.1v20.4h-3.4v-1.5q-0.5 0.5-1.1 0.8-0.6 0.4-1.3 0.6-0.9 0.2-1.8 0.2zm4.2-7.6q0-1.8-1.1-2.9c-1.4-1.5-3.8-1.5-5.3 0q-1.1 1.1-1.1 2.9 0 1.9 1.1 2.9c1.5 1.5 3.8 1.5 5.3 0q1.1-1 1.1-2.9z"/>
	<path id="Layer" class="s0" d="m1.1 9.9q0-1.2 0.5-2.3 0.5-1 1.4-1.8 1-0.9 2.2-1.3c1-0.4 2-0.5 3-0.5q1.4 0 2.7 0.5 1.3 0.4 2.2 1.3 0.9 0.9 1.4 2.1c0.3 0.8 0.5 1.7 0.5 2.6h-3.7q0-1.4-0.8-2.2-0.8-0.8-2.3-0.8-1.4 0.1-2.2 0.7-0.9 0.8-0.9 1.6c0 0.6 0.3 1.1 0.8 1.4q0.9 0.5 2 0.9 1.1 0.4 2.5 0.8 1.3 0.4 2.5 1.1 1.2 0.7 2 1.8 0.8 1.2 0.8 3c0 0.8-0.2 1.5-0.6 2.1-0.3 0.7-0.9 1.4-1.5 1.9q-1 0.9-2.3 1.3-1.5 0.5-3 0.5c-1.1 0-2.1-0.1-3.1-0.5-0.8-0.3-1.6-0.7-2.3-1.3-0.6-0.6-1.1-1.4-1.4-2.1q-0.5-1.3-0.5-2.7h3.9c-0.1 0.8 0.2 1.7 0.9 2.2q0.9 0.9 2.4 0.9 1.7 0 2.6-0.7c0.5-0.4 0.8-1.1 0.8-1.7 0.1-0.6-0.2-1.2-0.7-1.5q-1-0.5-2-0.9-1.2-0.4-2.5-0.8-1.4-0.3-2.6-1c-0.7-0.5-1.4-1.1-1.9-1.8-0.6-0.7-0.8-1.7-0.8-2.8z"/>
	<path id="Layer" class="s0" d="m118.1 23v0.3h-0.5v1.3h-0.3v-1.3h-0.5v-0.3z"/>
	<path id="Layer" class="s0" d="m120 23v1.6h-0.3v-1l-0.5 0.8h-0.1l-0.5-0.8v1h-0.3v-1.6h0.4l0.5 0.8 0.5-0.8z"/>
</svg>