<svg version="1.2" xmlns="http://www.w3.org/2000/svg" viewBox="0 0 85 24" width="85" height="24">
	<title>yotpo-logos-svg</title>
	<defs>
		<clipPath clipPathUnits="userSpaceOnUse" id="cp1">
			<path d="m0 0h84.75v24h-84.75z"/>
		</clipPath>
	</defs>
	<style>
		.s0 { fill: #888888 } 
	</style>
	<g id="Clip-Path: Clip-Path" clip-path="url(#cp1)">
		<g id="Clip-Path">
			<g id="Layer">
				<path id="Layer" fill-rule="evenodd" class="s0" d="m5 3.7l3.1 8.5 3.2-8.5h4.6l-7.8 19.7h-4.6l2.4-6.1-5.6-13.6zm48.5-0.3c4.2 0 7.2 3.2 7.2 7.6 0 4.4-3 7.6-7.2 7.6-1.5 0-2.8-0.4-3.8-1.2l-0.1-0.1v6.1h-4.4v-19.7h3.9v1.4c1-1.1 2.4-1.7 4.2-1.7zm-29.5 0c4.5 0 7.8 3.1 7.8 7.6 0 4.4-3.3 7.6-7.8 7.6-4.6 0-7.9-3.2-7.9-7.6 0-4.5 3.3-7.6 7.9-7.6zm15.2-3v3.3h3.6v3.8h-3.6v5.3c0 1.2 0.5 1.8 1.6 1.8h0.1c0.7 0 1.2-0.1 1.7-0.6h0.1l0.1-0.2v4.3h-0.1c-0.8 0.4-1.2 0.5-2.5 0.5-3.5 0-5.4-1.9-5.5-5.5v-5.6h-1.6v-3.8h1.7v-3.3zm31.3 3c4.6 0 7.8 3.1 7.8 7.6 0 4.4-3.3 7.6-7.8 7.6-4.6 0-7.9-3.2-7.9-7.6 0-4.5 3.3-7.6 7.9-7.6zm11.4 10.4c1.3 0 2.4 1.1 2.4 2.4 0 1.3-1.1 2.4-2.4 2.4-1.3 0-2.4-1.1-2.4-2.4 0-1.3 1.1-2.4 2.4-2.4zm-28.9-6.5c-2 0-3.4 1.5-3.4 3.7 0 2.2 1.4 3.6 3.4 3.6 2 0 3.3-1.4 3.3-3.6 0-2.2-1.3-3.7-3.3-3.7zm-28.9 0c-2.1 0-3.4 1.5-3.4 3.7 0 2.2 1.3 3.6 3.4 3.6 1.9 0 3.3-1.4 3.3-3.6 0-2.2-1.4-3.7-3.3-3.7zm46.4 0c-2 0-3.4 1.5-3.4 3.7 0 2.2 1.4 3.6 3.4 3.6 2 0 3.3-1.4 3.3-3.6 0-2.2-1.3-3.7-3.3-3.7z"/>
			</g>
		</g>
	</g>
</svg>